<svg id="Layer_1" data-name="Layer 1" xmlns="http://www.w3.org/2000/svg" viewBox="0 0 288 220.11"><defs><style>.cls-1{fill:#fff;}</style></defs><title>ymca-logo</title><path class="cls-1" d="M258.83.05H175.94a11.1,11.1,0,0,0-11.1,11.11,10.41,10.41,0,0,0,1.33,5.27l41.6,72.06a11.09,11.09,0,0,0,19.24,0l41.6-72.06a10.42,10.42,0,0,0,1.33-5.27A11.1,11.1,0,0,0,258.83.05Z"/><path class="cls-1" d="M275.87,6.07A6.07,6.07,0,0,1,281.94,0h0A6.07,6.07,0,0,1,288,6.07h0a6.06,6.06,0,0,1-6.06,6.07h0a6.07,6.07,0,0,1-6.07-6.07Zm1.25,0a4.83,4.83,0,0,0,4.82,4.82h0a4.82,4.82,0,0,0,4.81-4.82h0a4.82,4.82,0,0,0-4.81-4.81h0a4.82,4.82,0,0,0-4.82,4.81Z"/><path class="cls-1" d="M284.22,9.12h-.58a.55.55,0,0,1-.51-.22l-1.64-2.06H281V8.79c0,.25-.1.33-.31.33h-.4c-.28,0-.37-.05-.37-.33V3.33c0-.29.17-.3.37-.3h1.75c1,0,1.21.06,1.56.41a2.43,2.43,0,0,1,.47,1.7c0,1-.41,1.6-1.35,1.67l1.56,1.87C284.52,8.9,284.49,9.12,284.22,9.12ZM282.75,4a7.92,7.92,0,0,0-1.7-.07v2h1.16c.41,0,.6-.06.72-.21s.13-.21.13-.66C283.06,4.39,283,4.11,282.75,4Z"/><path class="cls-1" d="M129.78,102.36v0h0Zm73,1.39-.46-.79L150.9,13.84l-.9-1.55A25.18,25.18,0,0,0,128,.05H85.55A8.57,8.57,0,0,0,77,8.62a8.11,8.11,0,0,0,1,4.06l51.79,89.7a27.19,27.19,0,0,1,.21,27.11l-45,78a8.09,8.09,0,0,0-1,4.06,8.57,8.57,0,0,0,8.57,8.57h43.54a25.17,25.17,0,0,0,22-12.23l.9-1.56,43.3-75,.81-1.39a25.45,25.45,0,0,0,3.23-12.85A26.59,26.59,0,0,0,202.81,103.75Z"/><path class="cls-1" d="M83.18,140a12.92,12.92,0,0,0-2.3.46,37.57,37.57,0,0,1-8,1.05,10.6,10.6,0,0,1-4-.72c-2-.92-2.24-3.49-2.18-6.79H82.78c2.31,0,2.77-.39,2.77-4,0-4.22-.39-8.37-2.43-11.34-1.91-2.7-5.21-4.09-10.68-4.09-5.8,0-9.43,1.52-11.4,4.35s-2.64,6.79-2.64,12.58c0,6.53.92,10.81,3.69,13.38,2.18,2,5.73,3.09,10.68,3.09a59.21,59.21,0,0,0,9.95-.86c2-.33,2.38-1.38,2.38-2.9A11.71,11.71,0,0,0,85,142C84.76,141.16,84.17,140,83.18,140ZM66.7,127.58c0-4.8,1-6.45,5.73-6.45,4.48,0,5.07,1.71,5.07,5.79v1.25H66.7Zm-23.55-13a20.74,20.74,0,0,0-8.9,2.24V104.59c0-1.25-.53-2.84-2.57-2.84h-3c-1.91,0-2.9.59-2.9,2.84v39.87c0,1.58.53,2.63,2.37,2.63h3.49c2,0,2.57-1.12,2.57-3V129c0-4.73,1-6.34,5.63-6.34,4.41,0,5,1.68,5,5.69v1.23h0c0,.63,0,1.36,0,2.17v12.35c0,2,.66,3,2.37,3h3.5c2,0,2.57-1.12,2.57-3V123.9C53.31,119.61,51.26,114.54,43.16,114.54Z"/><path class="cls-1" d="M19,122.44H11.86v13.25c0,3.09.14,4.28.4,4.81a1.08,1.08,0,0,0,1,.53c1.85,0,3.89-1,5.41-1a1.69,1.69,0,0,1,1.78,1.84v2.37c0,2.44-.66,3.1-2.77,3.3a54.31,54.31,0,0,1-5.74.33c-7,0-8.5-2.57-8.5-10.41v-15H1.58c-1.25,0-1.58-.86-1.58-1.91v-2.84c0-1.65.66-2.17,1.78-2.17H3.43v-5.34c0-2.24.92-2.9,2.83-2.9h3a2.61,2.61,0,0,1,2.63,2.9v5.34h6.46c1.45,0,2.24.2,2.24,2.11v2.3C20.56,122.18,20.17,122.44,19,122.44Z"/><path class="cls-1" d="M174.13,199.34l5.05,8.55,4.77,2.76a1,1,0,0,1,.43,1.52l-.55,1c-.43.73-.82.95-1.6.5l-4.6-2.66-10.48-.12a1.51,1.51,0,0,1-.77-.15.88.88,0,0,1-.21-1.28l.69-1.19a1.23,1.23,0,0,1,1.29-.74l7.18.14-3.7-6.23a1.21,1.21,0,0,1,0-1.47l.57-1a.83.83,0,0,1,1.22-.42A2.4,2.4,0,0,1,174.13,199.34Z"/><path class="cls-1" d="M196.51,191.15l-.54.93c-.38.67-.86.72-1.51.4l-9.37-4.64c.39.46.95,1.08,1.38,1.56,1.67,2,3.5,4,4.57,5.37a1.31,1.31,0,0,1,.16,1.72l-.34.58a1.28,1.28,0,0,1-1.56.7c-1.71-.25-4.41-.77-7-1.23-.65-.11-1.44-.33-2-.43l8.71,5.8c.6.41.79.84.41,1.5l-.54.93c-.4.69-.87,1-1.65.5L175,196.25c-.76-.53-.57-1.07-.26-1.6l.7-1.22a1.2,1.2,0,0,1,1.34-.74c2.52.36,6.94,1.22,10.33,1.81-2.21-2.63-5.17-6-6.74-8a1.2,1.2,0,0,1,0-1.53l.71-1.22c.31-.53.68-1,1.52-.58l13.59,6.33C197,189.87,196.91,190.46,196.51,191.15Z"/><path class="cls-1" d="M203.48,179.5c-.49,1-.76,1.57-1.35,2.6a13.39,13.39,0,0,1-1.78,2.47c-2.54,2.66-5.61,1.8-9.45-.41-6.53-3.77-6.56-6.54-4.06-10.87.59-1,1-1.55,1.57-2.47s1-1,1.45-.71l.73.42c.8.46,1,.75.58,1.46s-.82,1.16-1.49,2.34a8.73,8.73,0,0,0-1.09,2.6c-.17,1.64,1.55,2.7,4.11,4.17s4.54,2.45,6,.72a13,13,0,0,0,1.1-1.64c.68-1.18.8-1.64,1.27-2.47s.75-.68,1.56-.22l.73.42C203.85,178.18,203.94,178.55,203.48,179.5Z"/><path class="cls-1" d="M211.63,165l-.71,1.22a1.11,1.11,0,0,1-1.38.59l-3.34-.62c-.53,1-.94,1.68-1.51,2.66s-1,1.76-1.49,2.54l2.11,2.4c.49.54.72.92.28,1.67l-.59,1c-.44.76-.7.75-1,.56a2.8,2.8,0,0,1-.58-.58l-10.08-11.89a1.36,1.36,0,0,1-.24-1.89l.53-.91a1.36,1.36,0,0,1,1.74-.75L211,163.69a1,1,0,0,1,.39.11C212,164.12,211.83,164.62,211.63,165Zm-14.47-.54,4.21,4.81c.3-.51.62-1.13,1-1.77s.69-1.15,1.06-1.79Z"/></svg>